<?xml version="1.0" standalone="no"?>
<!DOCTYPE svg PUBLIC "-//W3C//DTD SVG 20010904//EN"
 "http://www.w3.org/TR/2001/REC-SVG-20010904/DTD/svg10.dtd">
<svg version="1.0" xmlns="http://www.w3.org/2000/svg"
 width="200.000000pt" height="200.000000pt" viewBox="0 0 200.000000 200.000000"
 preserveAspectRatio="xMidYMid meet">
<metadata>
Created by potrace 1.14, written by Peter Selinger 2001-2017
</metadata>
<g transform="translate(0.000000,200.000000) scale(0.100000,-0.100000)"
fill="#000000" stroke="none">
<path d="M895 1893 c-147 -21 -290 -91 -411 -199 -44 -40 -116 -138 -148 -202
-59 -118 -80 -206 -80 -342 0 -107 7 -149 39 -241 102 -292 380 -496 682 -501
48 -1 105 1 125 5 50 10 73 -13 83 -82 15 -106 71 -107 94 -1 6 28 11 58 11
67 0 11 3 13 9 8 6 -6 12 -53 14 -106 4 -100 9 -119 32 -119 17 0 22 30 30
175 4 60 9 113 12 118 3 5 13 -9 23 -31 39 -87 60 -69 76 67 7 66 15 82 65
140 90 102 154 226 179 347 16 76 20 210 8 271 -5 26 -12 59 -14 73 -11 52
-58 158 -100 221 -107 162 -285 284 -474 323 -64 13 -196 18 -255 9z m499
-154 c60 -38 151 -128 194 -193 17 -27 32 -52 32 -55 0 -3 -69 -44 -152 -90
l-152 -84 -15 24 c-28 43 -73 89 -102 106 -16 10 -29 21 -29 25 0 13 161 298
169 298 4 0 29 -14 55 -31z m-418 -256 c-2 -3 -6 -4 -8 -4 -1 1 -27 -6 -57
-15 -184 -54 -279 -244 -214 -427 26 -74 110 -157 188 -186 49 -19 74 -22 135
-19 84 5 128 22 190 75 66 57 106 133 112 211 1 17 6 32 10 32 4 0 5 -15 2
-32 -22 -125 -86 -215 -194 -270 -38 -19 -60 -23 -140 -23 -84 0 -101 3 -145
27 -125 67 -186 167 -187 305 0 145 97 275 237 315 47 14 79 19 71 11z m41 1
c-3 -3 -12 -4 -19 -1 -8 3 -5 6 6 6 11 1 17 -2 13 -5z m84 -14 c75 -23 158
-90 191 -154 27 -52 49 -144 37 -152 -5 -3 -8 -2 -7 3 5 18 -14 97 -32 133
-22 44 -71 97 -115 127 -34 23 -130 55 -139 46 -3 -4 -6 -1 -6 5 0 15 -3 16
71 -8z m6 -80 c90 -39 153 -139 153 -242 0 -105 -81 -213 -184 -243 -63 -19
-101 -19 -158 1 -205 69 -240 347 -59 463 79 51 163 58 248 21z m-346 -499
c24 -22 49 -41 56 -41 21 0 15 -21 -32 -105 -25 -44 -61 -110 -82 -147 l-37
-67 -40 22 c-100 55 -261 242 -236 273 7 8 16 14 19 14 4 0 67 33 141 74 l134
75 17 -28 c10 -16 37 -47 60 -70z"/>
<path d="M942 1337 c-81 -30 -132 -100 -132 -181 0 -105 67 -181 169 -193 179
-21 281 190 157 325 -11 13 -30 28 -40 34 -28 15 -77 28 -71 19 2 -5 17 -11
32 -14 35 -7 85 -52 108 -96 27 -53 17 -140 -22 -188 -44 -56 -86 -74 -157
-69 -67 5 -116 37 -147 96 -34 63 -20 163 31 211 26 26 77 50 110 52 17 1 30
5 30 10 0 10 -29 8 -68 -6z"/>
<path d="M976 1161 c-8 -12 21 -34 34 -26 5 3 9 14 9 23 -1 15 -2 15 -6 0 -5
-19 -18 -24 -27 -9 -4 5 0 12 6 14 9 4 10 6 1 6 -6 1 -14 -3 -17 -8z"/>
<path d="M1205 170 c-12 -23 -13 -35 -5 -50 25 -47 81 -5 59 44 -17 37 -37 39
-54 6z"/>
</g>
</svg>
